<svg id="Ebene_1" data-name="Ebene 1" xmlns="http://www.w3.org/2000/svg" xmlns:xlink="http://www.w3.org/1999/xlink" viewBox="0 0 64 64"><defs><clipPath id="clip-path"><rect x="2.55" width="58.92" height="64" style="fill:none"/></clipPath></defs><title>NOVOMATIC Shortbrand 2017_4c</title><g style="clip-path:url(#clip-path)"><path d="M59.28,7.52C57.44,4.69,53.77,2.71,48,1.46A78.5,78.5,0,0,0,32,0,78.54,78.54,0,0,0,16,1.46C10.24,2.71,6.57,4.69,4.74,7.52,1.74,12.17,2.43,19,3.24,26.8c.15,1.44.3,2.92.43,4.37A141.85,141.85,0,0,0,5.55,45.28c1.53,8,3.2,10.82,4.32,12.24C14.63,63.53,28,64,32,64s17.38-.47,22.14-6.48c1.12-1.42,2.79-4.23,4.32-12.24,1.06-5.52,1.64-11.21,1.89-14.11.12-1.45.27-2.93.42-4.37.81-7.85,1.5-14.63-1.49-19.28m-.71,19.05c-.14,1.45-.3,2.95-.42,4.41-.25,2.86-.81,8.47-1.85,13.88-1.44,7.54-2.91,10-3.89,11.29C48.16,61.52,34.67,61.79,32,61.79s-16.15-.27-20.4-5.64c-1-1.24-2.44-3.75-3.89-11.29-1-5.41-1.6-11-1.85-13.88-.12-1.46-.28-3-.42-4.41C4.67,19.14,4,12.71,6.59,8.72c1.5-2.32,4.72-4,9.85-5.1A76.09,76.09,0,0,1,32,2.21,76.13,76.13,0,0,1,47.57,3.62c5.13,1.12,8.35,2.78,9.85,5.1C60,12.71,59.34,19.14,58.57,26.57ZM32,5.36c11.43,0,20.72,1.89,22.77,5.07,2.42,3.74.94,12.09.24,20.29S52.59,50.84,49.93,54.2C47.62,57.12,39.34,58.64,32,58.64S16.39,57.12,14.08,54.2C11.42,50.84,9.71,38.9,9,30.72s-2.19-16.55.23-20.29C11.3,7.25,20.58,5.36,32,5.36M15.14,16.76c-.31.17-.44.72-.44.72l-.33,1.45a1.12,1.12,0,0,0,.1.8c.23.45,1.69.71,1.69.71s2.53.4,3.54,1.64a3.74,3.74,0,0,1,.61,3L17.54,38.55a4.12,4.12,0,0,1-1,2,3.23,3.23,0,0,1-1.79.65,3.59,3.59,0,0,0-1.09.19c-.36.15-.47.75-.47.75L13,43a.93.93,0,0,0,.12.7,1.26,1.26,0,0,0,.8.4l13.94.1a1.21,1.21,0,0,0,.65-.25,1.45,1.45,0,0,0,.28-.7L29.06,42a.8.8,0,0,0-.09-.62c-.23-.28-.42-.26-1.07-.41A3.7,3.7,0,0,1,26.22,40a2.12,2.12,0,0,1-.52-1.91l1.23-6.77s.15-.49.47-.47a.71.71,0,0,1,.63.46l6.65,11.9a2.39,2.39,0,0,0,.58.67,2.57,2.57,0,0,0,1.14.28l11.24-.1a1.5,1.5,0,0,0,.87-.24,1.53,1.53,0,0,0,.45-.79l.22-1a1.27,1.27,0,0,0-.06-.9c-.24-.52-1.22-.63-2.3-1a4.67,4.67,0,0,1-2.23-1.37c-.25-.39,0-1.17,0-1.17l3.75-15.4A2.85,2.85,0,0,1,49.09,21a5.64,5.64,0,0,1,2.17-.93,1.39,1.39,0,0,0,.66-.32,1.2,1.2,0,0,0,.25-.54l.42-1.65a.86.86,0,0,0-.13-.72c-.22-.26-.81-.26-.81-.26H38.83a1.32,1.32,0,0,0-.83.31,1.15,1.15,0,0,0-.42.63l-.31,1.38a1.05,1.05,0,0,0,0,.62.63.63,0,0,0,.51.36l.54.09a3.44,3.44,0,0,1,1.51.72c.52.51.27,1.87.27,1.87l-1.87,9L31.46,18.57a3.75,3.75,0,0,0-.93-1.34,2.69,2.69,0,0,0-1.88-.67H16A2.22,2.22,0,0,0,15.14,16.76Z" style="fill:#002a5a"/></g></svg>
